<mxfile host="app.diagrams.net" modified="2024-01-26T11:53:49.498Z" agent="Mozilla/5.0 (Windows NT 10.0; Win64; x64) AppleWebKit/537.36 (KHTML, like Gecko) Chrome/121.0.0.0 Safari/537.36" etag="1R7yuA1sUcgK8rz_EiPD" version="23.0.1" type="device">
  <diagram name="Page-1" id="Jh2IBB2qZ3gYzUkibiqo">
    <mxGraphModel dx="1730" dy="434" grid="1" gridSize="10" guides="1" tooltips="1" connect="1" arrows="1" fold="1" page="1" pageScale="1" pageWidth="850" pageHeight="1100" math="0" shadow="0">
      <root>
        <mxCell id="0" />
        <mxCell id="1" parent="0" />
        <mxCell id="tMYXpALP1j2ZK1YCQTq1-1" value="" style="sketch=0;outlineConnect=0;fontColor=#232F3E;gradientColor=none;fillColor=#232F3D;strokeColor=none;dashed=0;verticalLabelPosition=bottom;verticalAlign=top;align=center;html=1;fontSize=12;fontStyle=0;aspect=fixed;pointerEvents=1;shape=mxgraph.aws4.users;" parent="1" vertex="1">
          <mxGeometry x="440" y="70" width="78" height="78" as="geometry" />
        </mxCell>
        <mxCell id="tMYXpALP1j2ZK1YCQTq1-10" value="&lt;b&gt;&lt;font color=&quot;#1c1e1f&quot; style=&quot;font-size: 15px;&quot;&gt;AWS&lt;/font&gt;&lt;/b&gt;" style="points=[[0,0],[0.25,0],[0.5,0],[0.75,0],[1,0],[1,0.25],[1,0.5],[1,0.75],[1,1],[0.75,1],[0.5,1],[0.25,1],[0,1],[0,0.75],[0,0.5],[0,0.25]];outlineConnect=0;gradientColor=none;html=1;whiteSpace=wrap;fontSize=12;fontStyle=0;container=1;pointerEvents=0;collapsible=0;recursiveResize=0;shape=mxgraph.aws4.group;grIcon=mxgraph.aws4.group_vpc;strokeColor=#248814;fillColor=none;verticalAlign=top;align=left;spacingLeft=30;fontColor=#AAB7B8;dashed=0;" parent="1" vertex="1">
          <mxGeometry x="250" y="250" width="490" height="460" as="geometry" />
        </mxCell>
        <mxCell id="tMYXpALP1j2ZK1YCQTq1-18" value="" style="edgeStyle=orthogonalEdgeStyle;rounded=0;orthogonalLoop=1;jettySize=auto;html=1;" parent="tMYXpALP1j2ZK1YCQTq1-10" source="tMYXpALP1j2ZK1YCQTq1-9" edge="1">
          <mxGeometry relative="1" as="geometry">
            <mxPoint x="235.30000000000018" y="110" as="targetPoint" />
          </mxGeometry>
        </mxCell>
        <mxCell id="tMYXpALP1j2ZK1YCQTq1-9" value="" style="outlineConnect=0;dashed=0;verticalLabelPosition=bottom;verticalAlign=top;align=center;html=1;shape=mxgraph.aws3.route_53;fillColor=#F58536;gradientColor=none;" parent="tMYXpALP1j2ZK1YCQTq1-10" vertex="1">
          <mxGeometry x="200" width="70.5" height="85.5" as="geometry" />
        </mxCell>
        <mxCell id="tMYXpALP1j2ZK1YCQTq1-11" value="&lt;b&gt;&lt;font style=&quot;font-size: 15px;&quot;&gt;Route 53&lt;/font&gt;&lt;/b&gt;" style="text;html=1;align=center;verticalAlign=middle;resizable=0;points=[];autosize=1;strokeColor=none;fillColor=none;" parent="tMYXpALP1j2ZK1YCQTq1-10" vertex="1">
          <mxGeometry x="280" y="27.75" width="90" height="30" as="geometry" />
        </mxCell>
        <mxCell id="tMYXpALP1j2ZK1YCQTq1-8" value="&lt;b&gt;&lt;font style=&quot;font-size: 15px;&quot;&gt;Load Balancer&lt;/font&gt;&lt;/b&gt;" style="text;html=1;align=center;verticalAlign=middle;resizable=0;points=[];autosize=1;strokeColor=none;fillColor=none;" parent="tMYXpALP1j2ZK1YCQTq1-10" vertex="1">
          <mxGeometry x="280" y="145.25" width="130" height="30" as="geometry" />
        </mxCell>
        <mxCell id="hhCjiG_dvKOZhPT0T433-7" value="" style="edgeStyle=orthogonalEdgeStyle;rounded=0;orthogonalLoop=1;jettySize=auto;html=1;" edge="1" parent="tMYXpALP1j2ZK1YCQTq1-10" source="hhCjiG_dvKOZhPT0T433-4" target="hhCjiG_dvKOZhPT0T433-3">
          <mxGeometry relative="1" as="geometry" />
        </mxCell>
        <mxCell id="hhCjiG_dvKOZhPT0T433-4" value="" style="outlineConnect=0;dashed=0;verticalLabelPosition=bottom;verticalAlign=top;align=center;html=1;shape=mxgraph.aws3.application_load_balancer;fillColor=#F58534;gradientColor=none;" vertex="1" parent="tMYXpALP1j2ZK1YCQTq1-10">
          <mxGeometry x="190" y="120.5" width="90" height="79.5" as="geometry" />
        </mxCell>
        <mxCell id="hhCjiG_dvKOZhPT0T433-8" value="&lt;b&gt;&lt;font style=&quot;font-size: 15px;&quot;&gt;EC2&lt;/font&gt;&lt;/b&gt;" style="text;html=1;align=center;verticalAlign=middle;resizable=0;points=[];autosize=1;strokeColor=none;fillColor=none;" vertex="1" parent="tMYXpALP1j2ZK1YCQTq1-10">
          <mxGeometry x="210" y="380" width="50" height="30" as="geometry" />
        </mxCell>
        <mxCell id="hhCjiG_dvKOZhPT0T433-9" value="Public subnet" style="points=[[0,0],[0.25,0],[0.5,0],[0.75,0],[1,0],[1,0.25],[1,0.5],[1,0.75],[1,1],[0.75,1],[0.5,1],[0.25,1],[0,1],[0,0.75],[0,0.5],[0,0.25]];outlineConnect=0;gradientColor=none;html=1;whiteSpace=wrap;fontSize=12;fontStyle=0;container=1;pointerEvents=0;collapsible=0;recursiveResize=0;shape=mxgraph.aws4.group;grIcon=mxgraph.aws4.group_security_group;grStroke=0;strokeColor=#7AA116;fillColor=#F2F6E8;verticalAlign=top;align=left;spacingLeft=30;fontColor=#248814;dashed=0;" vertex="1" parent="tMYXpALP1j2ZK1YCQTq1-10">
          <mxGeometry x="130" y="241.5" width="210" height="128.5" as="geometry" />
        </mxCell>
        <mxCell id="hhCjiG_dvKOZhPT0T433-3" value="" style="outlineConnect=0;dashed=0;verticalLabelPosition=bottom;verticalAlign=top;align=center;html=1;shape=mxgraph.aws3.ec2;fillColor=#F58534;gradientColor=none;" vertex="1" parent="tMYXpALP1j2ZK1YCQTq1-10">
          <mxGeometry x="196.75" y="260" width="76.5" height="93" as="geometry" />
        </mxCell>
        <mxCell id="tMYXpALP1j2ZK1YCQTq1-12" value="&lt;b&gt;&lt;font style=&quot;font-size: 15px;&quot;&gt;https://web.awsguruji.net&lt;/font&gt;&lt;/b&gt;" style="text;html=1;align=center;verticalAlign=middle;resizable=0;points=[];autosize=1;strokeColor=none;fillColor=none;" parent="1" vertex="1">
          <mxGeometry x="480" y="148" width="200" height="30" as="geometry" />
        </mxCell>
        <mxCell id="tMYXpALP1j2ZK1YCQTq1-13" value="" style="endArrow=classic;html=1;rounded=0;exitX=0.513;exitY=1.026;exitDx=0;exitDy=0;exitPerimeter=0;" parent="1" source="tMYXpALP1j2ZK1YCQTq1-1" edge="1">
          <mxGeometry width="50" height="50" relative="1" as="geometry">
            <mxPoint x="400" y="270" as="sourcePoint" />
            <mxPoint x="480" y="230" as="targetPoint" />
          </mxGeometry>
        </mxCell>
        <mxCell id="tMYXpALP1j2ZK1YCQTq1-17" value="" style="sketch=0;outlineConnect=0;fontColor=#232F3E;gradientColor=none;fillColor=#232F3D;strokeColor=none;dashed=0;verticalLabelPosition=bottom;verticalAlign=top;align=center;html=1;fontSize=12;fontStyle=0;aspect=fixed;pointerEvents=1;shape=mxgraph.aws4.user;" parent="1" vertex="1">
          <mxGeometry x="26" y="360" width="78" height="78" as="geometry" />
        </mxCell>
        <mxCell id="tMYXpALP1j2ZK1YCQTq1-19" value="" style="verticalLabelPosition=bottom;html=1;verticalAlign=top;align=center;strokeColor=none;fillColor=#00BEF2;shape=mxgraph.azure.visual_studio_online;" parent="1" vertex="1">
          <mxGeometry x="40" y="460" width="50" height="37.5" as="geometry" />
        </mxCell>
        <mxCell id="tMYXpALP1j2ZK1YCQTq1-22" value="&lt;b&gt;&lt;font style=&quot;font-size: 15px;&quot;&gt;DevOps Engineer&lt;/font&gt;&lt;/b&gt;" style="text;html=1;align=center;verticalAlign=middle;resizable=0;points=[];autosize=1;strokeColor=none;fillColor=none;" parent="1" vertex="1">
          <mxGeometry x="-5" y="320" width="150" height="30" as="geometry" />
        </mxCell>
        <mxCell id="tMYXpALP1j2ZK1YCQTq1-23" value="&lt;b&gt;&lt;font style=&quot;font-size: 15px;&quot;&gt;Visual Studio&lt;/font&gt;&lt;/b&gt;" style="text;html=1;align=center;verticalAlign=middle;resizable=0;points=[];autosize=1;strokeColor=none;fillColor=none;" parent="1" vertex="1">
          <mxGeometry x="10" y="497.5" width="120" height="30" as="geometry" />
        </mxCell>
        <mxCell id="hhCjiG_dvKOZhPT0T433-1" value="" style="shape=image;verticalLabelPosition=bottom;labelBackgroundColor=default;verticalAlign=top;aspect=fixed;imageAspect=0;image=data:image/png,iVBORw0KGgoAAAANSUhEUgAAAhMAAAEvCAYAAAGI9HP5AAAAAXNSR0IArs4c6QAAAARnQU1BAACxjwv8YQUAAAAJcEhZcwAAFxEAABcRAcom8z8AADiiSURBVHhe7d0JnCNlnf/xQUW88Ha9D5T/6qrrNSsqV7p7BhxhOumeQ5jupHtmWHHVdT1WXf17oO6u63ou6nrgKuvfa0EF5uRWvC9EV1EED2D6noOBAUQRyP/3TeoZnql+KqlKJ+mk+/N+vb6vVCpVlXS68uSXOp5aAgAAAGAhemp0K++PbuWF0W3nK+YnykMn/P6J0d1GlS1HR7eHRLfibl9n2WG5f+Vep9Kb4RKNatTDLTnLWZZVGmHuYXmW5TWWp1neYOlc/puxYdU+3X4+emjxCbwZlUQP77ds2cXlnp7NSWuPxocyV81cVn1Jb4aycc2t5VzutHvpTXCJZos7I4oe/3M0/FnLXGl5n6oOtslw/1gx9GYoxx132f43osab4ejxW6uDSz5s0X1/Hje8y6Lhg6LbF0W3LuLfD41z3PBfWuLTyXUWDf+0ci+tjatvaeaboeFPRrduPjccj2yzvMKi+7dYroiGJ71h5RxvWNzwXm84KdklvRnLll1Ub4F6XG+G+087bjg+zr/v+ON1+47qYGV4X3Wwwp/G0fDq6mBlOP5YNnoDhvLjazesvumANyN6uB5N578ZfsTdij9e3H1/vG79N+Pm6mCFP42j4ea+GS6639u77czKA+loHr0Zz4uG4+Ivzt2vNey/GW78gy3+NI6GW/NmuDckA03vtxl+xN2KP/47FnffH69b92ZstCRN42i4Y96MuAHLc6uDdR0f3dYzHN22XpPfjO63pv+6w3gzYkYH9vBmAAAAAAAAAACwKD05uo073fLF6mCHKxWmyqXC9Fz3dRxhccs4Ibp9hGWsOrjkV9Ht4ZbO3K+iN+Lu3YKTOtSwEQ+Nbr9geXR1cMl9LXpTvmRZpxFGb8Sa6mCHOfCNqL9LsLd3+8LcUxZ6I3Q73D/uH+VSUeNQJPfRiKcZ3LIaXVvTKeVnLgm9Ef59rQXuTUh4Iw6z6Oi8j1n0uDtyrxlCz9c6SW9EKT++1n8TEt4In/+4hpXvVe5Vh/UtokOexU0bX6Pc8eP+OMfdd0cJa/g+0a0Oo9btW6JbRfzh+k488ecP0W2T3gj35PnoVty4+P3fWG6znOSNkx9ZNKwj9MQ9pkMP3TRunOLeiKTogJf0RgdvSHwjoklqcdP402r45dFtfHxI0jTxYR3gqls33r0RTnz4zdXBlPQGuFv3RvT2br228mB97sl16+dUb9iJD/txag3rQDnd3qkRpvlvhDJS2Hn+UP/4ymh0Wu7Jdatawqdx8RfnNDL8xui2tW+EWyOi0Wm5J9etH/GHJT7sx6k3jW478o2IG4pu0zg5uq1Fx3C7Mr61mvxGdDf9EOON8PBGAAAAAAAAAAAAAAAAYJGrnOCRn/5FdHc+6bhlR908n2JRT8byHouOS77L8mqNMM+2+IfZPd3i9yd3b4vm0XTIIn5qw/pVe/03up38lULD11jca7mf5QMW3X+MRhidUeS/Vh0srxVJdCC7TqyR+fp7uld8pfDzspfe0c1vqM6QuFd1EJnUWinUUbWm0fDIwM7y2rVn37MyUwq53KaVGU6K6Gb6+/x8w9Ld0q4Ufkr5yfJQfsexlQV4crktZ7kVwU/0cD1JZ9clpRN02utprlD39UkrhR8d6x3v2T2eyhM0xr3hrlfnTuNen+sleuFyZzl06EoxbnHjQ3HcfV10Iv64G/6ZN/wyi7j7obgaJfSYixN6zEXXdXDcOHdSpKILZNQ76bFeWiu0Mri0eaXQectunM409bnxT6jcu/u+i7toj8QfqydpWjcu3lIkTb/C4sa71+NPq7i6Lb5SPMzi+OMv0wiPG5/tLLisRgZ2V07HK+YnP5JupdhSPvLIc55SmXlu3B/oVorQJSPi0Ymq4o+Lq/WYbLC83UvS9G5c0krhX4rCcY+5q0S4++6UR8dfKdxFCRw3Xolz41u7UvgrwcbVN1deSPHEsWf7K0Vf34WhFzhX7g8MrRTq/EM9oMSjDVbiplPikh7TP8Z/7I9R/HE+N25xrxR+Rgo7yxvzuw6NJmsF9we6lULXa3PjlLh/iW6l1nRJjzU6vtbXxzEaEfHHO+7+wlgpFLUU0WSt4P5Av9AUNz4UJzTOSfuYy++8YZ8bF/r18UOLezwenxvHSoEFYP2qG1kpkGw4P3E1KwUSndw//choEAAAAAAAAAAAAAAAAAAAAAAAAAAAAAAAAACw6IysGHMXWekEX4jdxqnDU+et0e07LboOCJqlWJgYyHrJhhZy3f/p9sEWXQ1InmHZaNEKcF/LCy1Ps+g191mcf4tu1dXxcVFO0whkoJXi7p7uJtWz7Hxy/T+6lUM+ZXH3tVI83KL739QIowu9yI3RrZv/kOhWXKuCNA5cKSorRrm0clxdHc8H90/UrTozVcfrWilE49ynXsNupXhBdHtbdKvH/OWILh2FtGavFNVsWHWTe0PbyfUqq1v1Nvt3ludZXmfRtcF04TjR47nq4JJ/tLy3OrjkLMtBFr93fI1DFkkrhUs0Wbfq9tc/P9KsFH+79vaG39y+vk3PyuU2/yq6i26QZqXQV0nlfv/EryszpbR8+SWVa3/YSvHLaNRCpI7k9T756W6ZVgqLLiN1cv4qd13QIFsR3uNfECbDShF/c2ulGReYmauXWkKvrbtlXSlcRgd3B//4Zcsu3L8yLIKVwn89vRphlkW33au8pHzQ+sG9s/7pLpomtFK4lAozJU1j//zfxFcGlwwrxX9ZzvDiv+kfj8a5/IVlvvmvb+GxeuGDoX+6Hqu9UkxVpgmtDC5zqCk6/U3v9NfXHLo+mP9P17gOXSn8x0LTPMnij3+sxQ1fa/Efe7fFDU9Z3GN+ZizOtyyhaVycT1tqPS4XWfzxusKQG3bjl1buzb70prtS8qst/niluU7Oj71AWzb1T9f9Dlwp/PHxOE+0JD1+tSXpsdB4P3KpJfSYi4TG+3G2WZIeD43PkuYrFqZ36rbDVoodFn+8tnjGP7mStFLoInj1VorLLdrzOmzZEo3zp1FNc4XFH/+TaNxPLeI/9n3LebFxinTXSuGcsvrW4AqhpFwptB+jEaE/MDRO4uNDK4UTXyncPzLJv1rctPfTiIi/DN/HLG784zTCE58nvlL4G/r88VqxHO1B9h/zr/boj2+tYmHq4kZWilxu6/LKAhoT+gND4+Quiz/eXyniV93zV4o0dKVkN/2DNCLixsWX8wtLaLzE5/FXirj4tI4OGXDjT9cIT9I8zbVx1b5yKX/tcyvDq29JuVJsi18yshGhP9AflxTxV4r45a/rrRTaBuJfvfhLFjc9K4W4mmKjfY3o/nBh/JVJK0Vv77Zmvhj3x/nL9MclRRpdKdz4pLBSyOxCc6py+NvowO4DVgpbIdxPpGYJ/YH+uNAlrd1GrWasFO6S1rd741gpJPTrQ1tB9diaNZP6R7RK6A8MjQtpZKW4l8WN13XUnaw1hQ4ACo2X+DwLZ6VwKeUnG/1lkUboD/THxS99qQ1WT64ONrRS6AAdN14H7zibLW58mpXC33DmP3ayJT5+Aa4U0ddHi4T+wB6LPz6er1hkPmsK8R8L5fkWYaXIKOkP/JHFfyweaXSlCF20/jpvOO1KIf7jftxxp8JK0WQ6knvIMli511zamln5Gd4EAxYtr+ZxKF2lg1cKzJeXvfSO4AqhsFIsYiP5sV6355SVAgewn6B/YqXALKcuvfzgkYEZVgrMVipMn89KAQAAAAAAAAAAAAAAAAAAAAAAAAAAAAAAAAAAAAAAAAAAAAAAAAAAAAAAAAAAAAAAAAAAAGDuioWJgY2r95WHCxPHRKOwZMkRlnJ1cD/dP7o6mMo7LfFlyNct11UHK48ruyy3W/7JAnQeNRSlwlS5mJ+oZP2qG8tD/WNviR5erFxDcS/LIdGt7h9p+Vg07HKy5RnR8J3R7UMtrqHwI9+1TFUHK+OeWh3c710Wf56rLKLhO6Lbh0e3fg6zAK0Rbyj8qNEo5se/FE26mLiG4gmWJ0a3uq+K4oWWX1mmo3Gfstzb4j7Euy0PsPgVxWMsbviblrHqYGVcvKG4y/Kd6uCSlRY3n25dxXG4RffVgImG31wdBFqgVkPhZ3Rwj91O/vC008r3iGZdyJJ+erzA8mvLbZYt0Tg1FGo89PPhwmjcWstp0bD4DcW3LOPVwco4ZZ/lj5ZXW74Qjbsmur3FIhp2lZ5rKPZYdkTDL7IArZG2ofBTKkxbZm4cOvH6h0SLQXu5hmIxNNroBI00FC4bVu3Tyrpk7dqz73nSi699UmWB86SnZxMbAoFWaUZDIRtW3VQZp58owyuvWxaNbqne3m0XL1t2UbmnZ3M5l9v8y2g0us8qy88tf7BonVL0U0wbfc+xHGXBfGp2Q+Fn4+pbysWV46+KJpmzFSu2H9Lbu/VaayAqjYOfJjcU+r3vVthm5y8tqNKG29B7FM8nLZhPrWwo/FQfn8r8Dz/iiK89rq9v+209PVtmNQ5+mtxQuI2ZrchTLKhWC6H3JxTtdcJ8Kg1OrW1HQ+FHP09K+amfRLPOcuyxXzuur+/8YIOQFBqKrhN6b7TXCJ2slB9/bqkwU87SaDTaUPgZGdip22Et48Uv/n6wEUiTedhGEV/JlVstSCf0/r3dgm4xWrj2wcX+yYnoQ5yYZjQUapiskVqrZRx33GXBRiBNuqyheLrlrZazLZdYLrDoZ9mA5T6WWrRLVLulH+zlYEucynUdReo80OLPk7Rr+x8tOrI07pEWvb53WM6y6Ntfr/08y/stgxYdaJZEj/nPH3r//tniT6PU2wWvA9beYPkfi16PomNRdEzK4y313N+S5vlOsTysOrjkIIv/P0iaR/8rVafaI7fJotd2puWZliRa9nMsOmbmqxbN89+W51k623B+8vLRwd2zPuQ0FLNSq6G4yRKap1YOtcTpSNH4dH+yyDZL/DHnakv8Ma3gz7LENyqeaBF9MPzxWbLC4rvUEpouTXw6GjXtRlA/OmI2JPSeqfHRRuc/e+OUV1hEjYs/XtGBd2pA4+Nr5VTLf8bG1Yum73zD+YmPrx+8ofIhp6GYlVBDcYIlNG3a6NwPX6ihqBUn1FAkRRWCE3o8bc6wOM1oKHQ6QejxLClZfKGGIikXWyTUULQz83rMUmYjgztfFw3SUFQTbyjuaQlNp5PHQl5jCU3vzumQtA3FDZbnWpy0DcUHLI0ILUtJEppWP8eS9FpC8yRVcfr5FJpeUXnvpG0oPmFx0jQUOvRe/08d3q//w+WW0HR+NM/rLTpu5NmWH1tC0/1fS3cqFSaGNq6+OdgY1MpcG4q+vu12u+mqpUsvD/1Ob6XQPzC+0v6NJTSdzkhNEppeJ4c5tRoKnUeSpFZD0YwD5PQ/DC37QZaQ0LTa/pHkR5bQPLXofQ7N4zdItRqKfktIUkPxUksSba8IzfNRSy2hebr3BMDiyvHPR4NLiieOPbuyByU/GWwc/DTSUPT1XWC3W7ZXnmz+hP6B8YYi6cAtnfClD248qopC0+u3rJPUUJxkqUXLD83XLPqQhJbfrIbiF5b49Ddb6onPo2iDohNqKJIqPiepoVhtSZJUXZ5uqSU0T/c2FO6nR/Us04kfRqOXbFhxzSOG+yf26UQyv4FwSdtQLF9+id2eV2tFarfQPzBtQ5E189lQ6GePO6W+kdBQVNFQSGgbhXavDucnxteuvTLabVY+yMZ/f3Tg7j0otRqK5csvterh/MpjHSj0D2xVQ+EfBt/OhkJb8kPzZAkNRRUNhdTbmKkGYWRgV7k4uGP/PuSh/PjnNd/dDcU3yzqP4+ijN2mXXacL/QPTNhT+xsms2tlQhKZXxzshOrErNH0rGwrXV0ct8XmU/7A4NBTtlHWvh3atFvsn4/vau0noHxhvKLQbKzTdXP7R7Woo1JiFpn+0JaTV2yh0MFZoHu0NSfImS2gev39YGop2ytpQuKjSGO7fsS5aTDcJ/QPjDYX8zhKaVpm0fM+iA3XUl6a+Nfda/GneZvHNd0Wh6MjHNZaPWK6NxiWlWQ2FhOZxUefE6mVspzculPiBVzQU7TSXhsL99OgyoX9gqKGQKyyh6dNERwf62tlQuE6D55JmNhTiuv5rJPv3zHloKNppETYUOmxanav40WHatehAmglL6J8fjz7Yob481FDEn1v36zUUV1r8edx8aWjjX+g1Kr+3qC9R0Qfdf20a1rkQIfG/QUnTUDjPt9SrZhSdpaw+S5NstsRfh/pErUUNRfz1636thkI/5UJ/s7+9JCT0PDQUABYwGgoAdakbf/vQ/yQ64Cp1aCiARayYnzwvTZVBQwGgYqh/4k1JjQYNBYBZhlaOvWT94F4aCgDpFPt3HD5S2PWnUn6KhgIAAAAAAAAAAAAAAAAAAAAAAAAAAAAAAAAAAAAAAAAAAAAAAAAAAAAAAAAAAAAAAAAAAAAAAAAAAAAAAAAAAAAAAAAAAAAAAAAAAAAAAAAAAAAAAAAAAAAAAAAAAAAAAAAAAAAAAAAAgHm2buX4i6JB3O1TlrdVByveYPl/1cHUNlmeWx3c736WL1geWbm3ZMlRFj3Xf1verhFAx9mw+qZyMT/17eguqm6yfKs6WLHNcmd1MLWyZX11cL8HWjT+KZaN0fAdll3RMNB5RgZmrJGYKG9Yta9cLMzEV+rFqlYj8QLLaZZTK/fu9grLOyxHV+5VP/TDFlVq79YIc0/LCy33snzXcrsl5OWWN1sOrdxbsuSvLMdYDrE81NJnebDlBItf8QDN5xoJpVSYUcaLx03dP3p4sVIjoerq4CjnW1wjoQ+/H7nRouG7LLdqhIlPd4HlAdHwYRY1ErdZ4uLzPdqinyTu/oBF8/nTTFuA1vAbCZcNq24sl/LT740mWYzch95P/OdGr0Xj5U+Ws6uD++mxM6qDS8Ysl1nU+Gr8kyyhRkJVhx53jbQanQ9bPmbR+L+1yM2Wb1YHl7za4l4H0HyhRmJ/CjO3ja6ceFo06WKiSuKHlidEucTiGgl9OGcsey3uw6kNjxpWvqwRRsPu59sOS5pGYqVFj7tG4o+Wz1o+atF4R42EKhP5B4v/GNBcNRsJy+jAbmssprdGky8WSdsk7m3RB1LbFdyGR58+0G6cbms1Et+3/NniW2bR4/qJIxpOaiT0muSVFv8xoLnqNRIu6wf3lodP3DEYzbbQ7bP4jcR2i0p/bXjUB/IrFv3EcB/OScvFlj0WN063SY3E4Rb9dNCwqgV96P359Pxapoafbvl4NOxoeu0V+bVF4/9gAVojbSOhjBSmy6XC9DWnLr3cfdMtVHmLtjk4R1pcA/kyi451eJZljUaYfsvnLDqWQhsaZZVFFYNoL0TOor0aqy3agCnaY6FlfckypBHmsZZPWj5veb5GmOdZtDxHjcRPLP9l0bRueUDzZWkkXLRhc6h/4i3RItB+/jYJoLUaaSSUUmGqPNw/7rawo730E+Nr1UGgxRptJJTh/HjlSM3hlRNu19y8OP74Lz/+mGPOfXx0F0AzNaORKPVPfGN0YE953cCOIyoLbaOens2fO+64y8q53PbHRaMANFMzGoli/8TXdX/94A3lkcKMtuK3XG/v1/p6e7eVrZEo9/VdSCPRvXTouY4z0Z4h7UHSTyndaje0Ns5q25cOR8d8aWYj4bJh1U322KTb8t9kp90jl9v8v31951caCBqJrqbzU9Qo1Is7hwXzoRWNhFI5D2RgZsepKyd0enRT5HLn/d2yZZfsbxxa2EjoxKvQyjrX7LSgSueghN6jUDCfWtVIuKiqWD+4+32VJ2vQ0Uef9QhrDPa4nxfxtKCRCJ270YxcZ0GV+2mRJphPrW4kXEYGdt0+WphyBxel1tOz5dPLll0cbBxcaCS6zpMtofcnlAkL5lO7GglldFDngUydV3niOo499txjqpXDllmNQjw0El1HR6+G3p/LLT5ti1gspwJ0rvWr9gY/0GmStZFw0e5Sm1eHPgf19Gz7YV/fBcEGIRQaia6j099D7w860VB+x7GjA7uCH+Z6abSRUCobNvNTv1279kqdWVnR27tlZPnyS4MNQa20oJE43aK+IJKik7lCK/m5ltD0LnPaNrOAqBOf0PuHTlbMj39eZ3qGPtBJmUsj4aINm1qG/bx4ZW/v1mAjUC8taCTqOdkSX8GVv7GgPnU9EHr/0OnWHH/lQ0cG9+wr5SeDH+h4mtFIjFhFoWXkcue9LNQApMk8NBI6YzO+givq/xL10Uh0O/vQv2XD6n32IR6f9aH2QyMxK2kaCfUpsdbyaYvKbvV6dY7ljRb1ol2PetxWJ7guD7GEvMbiTum/h0XT+fOFjmLU+S8fqg4eQK95qUUd9KorPf2s0uvWmag6zV2XHHimpRb/+ZN+bvivz8X10hWiU+R1Cr1e02aLXpNuP2A53rL/p2wN8fflvpY4nf7/H9XBCj2vP0/SsUAPs6jqPNOi13ah5bWWWtTR8Ustn7BcZNFPW72/+h92ntHCrqtHCjuDH26FRmJWajUSutaGNlyG5otn1JJE/WXGp/dXoA9a3Hh9sEUd7/rTK+pIx/kLy+8tGq+Nto4agfh89aKVOyQ0bZqoX404NUjqQjA0fTw6tPs+lhA1lPHpL7U4apCvsmi8/77o1AN/Hv+xR1nU36n/eChqDBw1NGpsQ9P5eYal8wytnHyJzskIfcBpJGYlqZEoWkLT14q+QUJ+Z4lPq344n2NRF3v++A0W0fEp/njF9bCtb7f4Y07aRi0e/0PjhKZLE12+wPcRS2i6elH1FhdqJNT4iN9vqYsT2nCtBlk9pcfH14ouleB6JUubzqwopJSfOVcbGf0POI3ErIQaCbX+oWnTROV9XKiRuDIwTtG5ERJqJOLd8vtxtlhCj6eJ6xDYCU2TJv71TV5lCU2TNvGfRKFGQnFdE8bjJO3dakdcw9+Ziv07DtfuUnU4ow84jcSshBqJ0HRZEhdqJJKi4xEk1EjUiqOu+kKPp40v9HiaFCyib9DQ41njS2okkuK248xnI3GLpfOV8pP/rit+0UjMSryRCG0LcPmRZZ3l2Zb3W5JOKlMP2r4sjYQuCyBZGwnXZ6Z6Bdd9ba/Q73D9blYX/roymV67NubpKMn4/C4vtjg/t1xh0TYCdzmCeH5s0TQuP7OoL1HRsSuheZQpizaGftWiD3CtKmmFxcnaSKhTYpnPRkLnvHSHjfmrDh1eOV7pQo1GYn/ijYQ6xw1Np+74Q0LTqut9X9pGwr+4UtpGQr+P1Wg56h08Df0sCi1PH+yQpJ8xtSR98JM28mqPQmj6yhdbJG0joW0N6gzZSdNIfMOi66joujXueir1omux6OxY/URV58mhaZTuM9w/8d1QA5AmzWgkdPr4UUdt1sa7dknbSIxb4tOoC/0koW9Lda3vq9dI6Ns3Lk0jMdf+P0LLTOqst5HjJELT672oRdc1ic/jX+skTSMRatBrNRLxa8Q611hC0ytJ2xl0ZfrQ9N3n1FPLB5f6J36hD3yoIaiVuTYSy5dfUu7t3aLfzu2UtpGI721QVG4nGbHEp9dGNF+tRkJd9IfUaiS+bmkGXQckvuzvWEKyNhIPsoSmf5OllnrPU6uR+KklSaiRiF8GMi5pF2ctulxC1nk621B+rHd0cE+wMUhKo42EfmL09GzV7/r5kLaRCE1Tq3u/4yyheXxJjUQtSY2Eti80SysbCR2UFJpe106t5TOW0HxOUiPxLkstoUai3raC/7HE51FqWTiNRCk/ftFJhWu1IlaUBnZ+NW1jkb2R2GINxPnlY47ZrAvWzJe5NBK62tbVCQkdKKX4Qo1EvRU0qZHQ799mmY9GIqlychptJLRhthYaiay04VInh40UpvdfWbvYP3VYsTC9L9Qw+MnSSGjbQy63Vf/4+TaXRqKR+OarkdCeCh06/vZANF6vIb58Gom70Ui4D33lAsP90yqbK4bzM2/UFb+SzgNJ00io85ne3i1/sAZCh7x2gsXUSGj3bGjeNKGRuBuNRPyDXyrMXFVeUj6oOkX5IJ0Hoj4k/OnctJoiqZFQ13XHHnve6yuL6RyLpZF4tyU0X9rQSNyNRiL+4Vd0GHdpYHr/B3wkPz24cZXOLr17mqRGotpl/qafqgv9ysydZbE0EqF5soRG4m40Ev4H/8BMqhPcPWuO37H/rLdifnqb6+Am1EhUD47apKP9OtVcGokfWB5ueUSG+NrVSOgDGJpH0bEefrQxNjQdjcTdaCRmNw4HRmeSDhcmPhvNsmQ4f93TrQG5XeeC6L4aCfVr2de3bf/Gzw42l0biW5a5aFcjoT4aQvMkXSinlXs31KiGps9ZalGfHaH5HBqJdknTSLiUCtPldSuvPzqaVfNW+n3s7d081OZDq+cibSMROuLvl5a5aFcjoXMn4tPXOrmolY2EOp4JTa+NqrXoMOfQfA6NRLtkaSSUkcoekAkd0RZt2Ow6aRuJHZb4NPVWpnrms5G4wZKklY2EhKavdYi7hObZZ3FoJNolayPhojNJh/rHko5172RpG4mkclcdmtSjLsxC07WrkcjSo/XxltC0zWwkXM9Z8ehEqpDfWELTq3s7h0aiXRptJBQdVxEtppukbSR00lloOkXH+uv0afV9+E2LDjG/3hI/2zGuXY2EPiiheXQ907+LovM+9G0emk5pZiPxSktoHhf1hrXLoquRhx538U8EpJFol7k0Em7vRpdJ20hIaLtElsR3AberkVD/jqF5sqSZjYSE5smS3RYfjUS70EjsT6iRUA/UoWnT5giLr12NhNT7Vq6XZjcS6n4uNF/axHvPppFoFxqJ/Qk1EqKOXELTp4n29fva2Uioh+/QfKG8MzCu2Y2EqNEMzVsvoW7vaSTaZZE2EurnwT+gSPeTGglHx4kkdVPnR9/guraF6xLfp7NF/ed1qUWNRPz1KvUaCdFv+KSDpbRMHU/hxJ9D21pC1DOVP52iebNQr9maJ/S6XNTT1ussSdRIxF+z7tdrJNSZjj+PSy1ftMSnr/c3f9ySdZ7OtAgbibm6l6XPopVRDY5u1Zdlp5zAFvJYi/q11GvVGaH6GzqBttn0WPQ+KroYTr3GGu1GIwGgJhoJADXRSACoqdg/fo7OyQg1AvVCIwEsEkOFiSF3+neW0EgAi8zIwM5v6PTvUIMQCo0EsAgNnTD+nJH8zB2hRiEeGglgESsVpk+v1QmuQiMBLHIb87sOtYbghqQNmzQSACqK/VN/v3H1zTQSAGor5qcu96/uRSMBYJbh/rEXVveATNJIAEhWyk+eecqaW2kkACQbWbNDZxcCAAAAAAAAAAAAAAAAAAAAAAAAAAAAAAAAAAAAAAAAAAAAAAAAAAAAAAAAAAAAAAAAAAAAAAAAAAAAAAAAAAAAAAAAAAAAAAAAAAAAAAAAAAAAAAAAAAAAAAAAAAAAAAAAAAAAAAAAAAAAAAAAAAAAAAAAAAAAAAAAAAAAAAAAAAAAAAAAAAAAAAAAAAAAAAAAAAAAAAAAAAAAAAAAAAAAAAAAAAAAAAAAAAAAAAAAAAAAAAAAAAAAAAAAAAAAAAAAAAAAAAAAAAAAAACgAfeIbkMOsuhx3bbK/aJkUes1O/eMbgEAWQ2tnBgaHbxhulTY+fbhFdc8MBoNxB1pKUf5qUYEXGZx0/RoRAu8x+Ke4xUaUcODLP9r0bR/sDzVIveyvNey0+KWFc8nLACANIqFiYGRgZmysn7V3nKpMP2H4fzEx4cHr3t0NAkgR1husuiL9lsaEbDNosfvtBytES3wTov7wh/ViBpUNBxjWWdZYbm/RbZa3DJ+ZNHjmu5Yy0mWt1tc4QEAqMcVE6XCVLmYn4gyaYXFjeWRwT13jhRmvjCcv+7p0eRYvPxi4psaEeC+pFVMaEuGfMmirQLuy9vlZsuHLIdaRLsi3mLZZ4lPq+d9hkVcMXGH5fOW71r85Wt+FQSiLW2XWP5o+b3liRbtgvmeRdPeZnmKpRZt3fiAJf66tEw997MszscsGj9p0Ws433KjRdOoONewnvPTFr2Ht1vc8vR+nGoBgO4TLiYOzOjgnvL6wRs0fNnwyonjo1mxuKiY0Jehvvj0xaov5O9bfhDd6v5eix73t0yoCNAWhOWWnEW//j9jcV+i77LISyz6Ita4LZbnWVSQnGgpWO5tEX/LxF2W6yzaZfE+y58sGu+2nGhLhL60NW7M8iSLqAjQOH2x19oC8RCLdulo2j9b9NxHWVZb3HhlvUX+0+LGKXp9KiieYHmsRQWDxrtCSH/bcRZtHXHzvMYCAN0lTTHhZ2RgZ3nDqpvKI4WdvxjKj6+NFoOFzy8mbrHoWISfe9F99+s9tJtDX6b6hf40i36Buy/PMyzyAovbwqD5v235Z4sKEJ9fTAxpRORRlustGq9jN2SuxUS/xT2XCpT7WBw95rYs/LdGmI9a3PRv1QjP4RZXTGh3kO/vLW6+N2sEAHSVrMXE3RnfX1gU85NTVli8au3aKx8QLRYLj7+bw31Zx2226HEVAy/SCOO+zBUVG+MWtwVD+ZTF0daHouUsyw8t+mXvphuxyGkWN85tEZDHWHZYND5tMaHi5ckakSBvcc+l4sYdcyEqJrS1Qo+dqRHGLya0y8bnFxMXWHQ8h/Nqi5uPYgJA92m8mDgwmn/Dqpvtduf0SP/UB0sD4w+LngILQ9YDMDX9fS3XRuP0Be4MWtyXpysm9Kv/MMuDLSoqdAzFmyxuug9aZC7FhDs+4kKLW8Z3LNrV8FeWZ1r6LNr1oi0oD7dcY9F0KoB6LTrGQ8+13eKW8XqL+Ls5ahUTev90DIWWpb/3HIubL75FAwA6X7OKCT9alo6x0JaL4fzYmbb8ege5ofPp+AUVCfrCu0IjAi61uC9FHRsh/2Zx41xusLhdGp+ziM6oiE/n4u9i0PERbvzLNSLyeIvbDXO5RhhtKfuxReP0mNuloSJHp37q2AW3rHjc7hcVGD+xhKZRcfVKi6PdHe4xdyyI4xcTSTndAgDdpxXFxIGZLG8Y3Fs59bTUP7WpWLjOHeWPxUWdQqXtGErTaTdAuzqScs/n73oI0Zkgjb4uv5jQAaairS9aXis7+QKA1mt9MXFgRgd2V047LeanfjK0ckxH8AOLgV9MaAtOvcIFALpHu4sJlw2r9pWH8xM6nRBYDB5h0dkpb7DotFcAWDjmt5gY1xHyzkHD/RM/KBVmxor94+tzuW8sml9up5122j2OPXbzUF/ftqt6ejb/vrd3qzpXAgCgO3RQMbGk2D/xdZ1qqteix0cHdk8W89NvG81d65/fvyCsWLH9ECscXtXXd8H1y5dfUrYCotzXd2E5l9v8y1xu++OiyQC0j45h0Rk26qxM/aSoPxT1AfKq6FbXgjnB8n8sD7Vo2oMtADqxmPCnqxYWKjCm/1hcOfmvo4Up11dA17FC4eG53JZ39fZuu3nZsosrBYQVFPtDMQG0nfoLUS+l/lk1jeQqizpOAxanTi8m/FQKi8G9Njx1+8jA7q64ZogVB0/r6dn62Vxu0x+1BaKnZ8sBBYSfDi8m1C+Cfp1pn/8/dkHeaNEvS/XjAMS9wxIqChqNOlrjrBwsXt1UTByY8UpfFqMDe2w5k5eWVs606iqVmR199LlLrXi4sK/vgkqBECocQunwYsLvtKpbou616eMEPu0y1bVkQuvLXPLvFmDx6t5i4sCog6yNa27V7Y9K83DNkFzu3IGenq3f1u6Lvr7zg8VCvXRBMeE6heqW6CJgFBNw1FnZ1yyhdWUu0QXqVlqAxWuhFBN+RgZ2ldev0u6QybF1+bHXrFmzQ41IUy1devnBPT1bRnO5Lb9dvrzxAsIPxUTTQzEBn9bhWr2ehrLHomMqdP0V9eb6Wct5lq9b1DOqenPV8RLs4sDithCLCT/6uzauvlkFxq5Sfvqt61b+WtdbaEgud/YDcrmtb+zt3bZz+fJLZx1AOddQTDQ9FBPw6bonofUklEmLrtcCII2RE6eOKOan9m5cva+tBUW7igk/+vt0nEWxMPXnYv/Yp0sD438ZPXWiXG7T4b29m07v6dkSPAOjmenwYkJXAf2TJdTwdmpmLDqND5AvW0LrSSjusvIAslBfDvbL/fXrV904tqFSWEwHv5CblfkoJuJZP7hXfVncURqY3rwxv0tXgqw48sjzHtPbe/5Xenu337Fs2UX2RZ98BkYz0+HFhGhTrs7F123WyJAl1HCHcqvlBRYJLa9e9DoVwNlqCa1robzbAmAuTjutfI91+bGRUv/Uz6tnTOwOfhnPJZ1QTCjaWjFSmCn7B23mcue97LjjLgt+4bcyXVBMzFWjxQTQDFmKCZ06CqCZdEGuYmHq4vWDN0aFxeSsL+WsoZiYHYqJA0IxgWbbbAmta6Ho+AoArTKcn3x6sX9y08jAzF3Vq3+Gv6TrhWJidigmDkgziomnWtZbfmrZZ/mzJfRcodxuUb8a37QMWh5paYT+l5dbdFbAzoTosX+w1PI0y9ssmlavb9yiLp19j7f80FLvud5lqUXHEmmavRY9l+bT88c90PIMyzKL+lm4wqKzG3R1VB1fc5fFf0/TRO+75v+VRZ2kPdOSxTmWpL9fp3CGnjOUWyyhZcSj58p6fIX+JnXNfaVF62XWY5H0d+h/s81youWxlkYcYvmSpd768ilLLYdZ9L/aYbnTotcWf033s3zVkvRcGq/Ha13e/94WdVSov/lzlmmL/k9pPtdapz5oeZilHr0GtR3HWT5tmbJofq2boWX70evRa1uobXhrnDRw/VNKhZ0fH+6fuE1FQJbjLCgmZodi4oA0Wkwcb9Epe6FlNiMfszzIkpYu2vY7S2hZfn5s0TUhHDWcp1h+aQlNf5tFjapPXc1fbQlN7+e3Fn2ROBr+W8vPLKHp9QWhgsE3YAlN26ro79J1MerR5d1D87cyH7LUomN4Xm7R2UWh+ZuViyxHWtLS/10FSWhZflQk+l2F61ikkyw/soSm17q53OK7v+ViS2h6P3qfRBd6PMryccsvLKFpG825Fv96T8+xvNeivzM0faNRYZ+meIHvlDU3PtSKgzeWBmZuSFNYUEzMDsXEAclaTGjrgX4VhJbVinzRol9b9aQtJvTr9PkWbaHQL67QNPG80uJLW0zol6Ce67XRcGiaeIYtcdriEpq2ldF7U+ssrPkoJtR9e5L3WULztDLa2qHPWj1piwn1zfFCy8mWa6Nx9aLL7fvSFhPastWOz/GYRVv3Qo81MzrFmDPKGnXq0ssPLhUmXzkysPs36yuFxcysL3GKidmhmDggaYsJ/epTR0KhZbQ62qxb73+VtphoJP9q8aUtJhrJ6y1x2rURmrbV0e6THkvIfBQTRUucfu1q031o+nblEssDLEnSFhONRKfh+tIWEwsx6uBswV35el4UV04MlPKTP9MxFqODeypf4hQTs0MxcUDSFhNnW0Lzp4l+celXkJJmf2go2pTp756Ia2UxoX2zvlYWE1+xxPdn64qboWlD0X5tvd8uoWmyRFtFtCso7nuW0PStjPat+461NONvbEa0fuqLPKSVxYR2GTzC4izmYkLr/jEWNNO6ldcfXcpPbD/1pXeVh/Lj2ue2H8UExYSXNMXEqyyheZOig6i0ab/WrzV9Yb7Mok3FoWWEogO7krSqmFBvpG+2+LtaWlVM7Lb8X4u+fHw68O6Tln+yaDeTDtJUYRX6kq9F8+iAxCzvuRI640LHs/yFRT3dumi/tQ4WvcASWk4o2oeuK85qXn9ZoWj/vqMvzawFjY5JOcOiXQlJX/x6Hr3H+pUbWkataMtdSKuKiT9YPmzRlYadVhUT+qLWsSjuYOFWRf8j7bLY5Y3LkvguSTTTqWtvOOBANooJigkv9YoJNfJZ9tmrj4EsnVip4PhfS2hZ8fzGknSgVbOKCR3UplMb9YWTpFnFhI7f0PUn1OtpO6kwuswSek2h6EwE7eZKqx39TGQtcFUQZqUiIMuVT3X13MMtcc0sJrRLRVtkkv4fcy0mdHDwJyzPs9S61pKuHt3oVkZFB2+756l1TNSzLCqyQ8sIpZH/MxplxcT7Rgu77tgwqFNO596XRZp0RjGxpayeNvv6tt9lw5/I5c5cqPvXmllM6MOsX0CheePRQWP+Jte09GsitLx4dApp0mudSzGhX+o6HVSnfKYxl2JCz6XTQdM+V6toC0Xo9YXyXYu2HqTV6mJCX85ZniO+myoLrVe/t4SWG8prLHFzKSZUcH7Aoq1TaWQtJlQ8jFj8s0jSONiiszVCywzlGsuopZGzLv7TElpmKBQT82H0hJlHDfePfayUn7pdV//UF36oEGhG5q+YqBYQvb1bb+/pOe+jRx21+QnR0y9kzSwm9Ks5NF8oOjbH3xSdVpZjAnRqZUjWYkKFib7UkzZ315K1mNCmYe2+aOS5WkWnHKY93uA7liyn6ba6mNAXUtrTGPVlrPVrLj5jCS07lPjBupK1mNBr/qgl3r9JGlmKCR1gq1OPG6HdlP9jCS03FO2OaZR28YWWGQrFRPuUDxoqTP/12rXlAw7yGl5xzQOHC5NvLw1M7zhlzW1NLyzaWUzoImHLll1iw9vGe3q2vnvp0rOzNIQLwXwVEzo2R5t5n2zRVUTTRF/M6uchbcdLp1pCshQTc2lEJWsxscLSaRZLMaHjd+Z6UF6WYiLUsVaWYkLHDKy2NCprMdHoc2UtJk63NIpiolMV+8e/fepL77Qv+OlfD+d3bszlvnHAr8m1a6+8txUAw8X85DUbdGbIwC4rCMZnFQhZ0upioq9ve3n58kvKudyW63O5rcUjjzzv0OhpFqP5KibakWYVE/oybVTWYmIuhUurrLFQTKSTpZg40xKXtZgI9TWSFsUE2sc/AFOdXun00ZH8zEypf+y18YM1pdg/uWL9wO7vaJ6RSmGR/TiLVhQTfX3nl5ctu1CFxA96ejYVosWCYqJeurmY0P/jPRbtgw49VytCMRFedigUE+FQTCxESWdzVAuLm8rqtnt04Ib3F/uvm3XQz9CqmaNs2q+NDu4uZ7lmSLOKCRUPig2fn8ttqnXE/WJGMVE73VZM6Gh3HUQYWnY7QjERXnYoFBPhUEwsRGlPDa0clDmw8/bh/NRXTxoYn9W1rq4ZYgXCGaWBXbersCjlk4+zaLyYcGdgnP/nXG7rZ4488ixdGAa1UUzUTjcVEzmLvhBDy21XKCbCyw6FYiIciomFKHs/E5OVS6JvXH2zFQUzW4fyY73RovYrDYw/zAqF947kp3dr2Soe/GVkKSaqB1BeZMNbb8zlzj396KPPauR0w8VsvooJnSGhL55vWXRmRzOj5Sp5S8hCLCZ0BdW0X5qtDMVEeNmhUEyEQzGxEGUvJg6MuupeP7i3XOyfvGK4f8e6aLH7rVix/ZBifuofbNprT1lza7WIqFNMqIBYvvwbKiB25HJbXpvLnV2r90TUNl/FhC4jPl8WYjGhKzuGlpcU9dqoPjt09kit6Hob/2LR+xBaTjzdXkyog6W5yFJMhPq0oJigmFiY5lpM+NFxFtpiMTKw67qR/plXqJCInsY5qFiYGBjJT1+t6Yr5Hfs/KMccs/lVK1Z83wqILVdbAXHy0qWXqyMUzF0ziwkdlxKaLxRd3jv+/2+XhVZMqBdRXeo6tLx49PeoSMhCf3+3ns2h/hfS9pqqL+eSZS505drQskM5zRJHMUExsTA1s5jw4w7gLOan9hbz429bt3JC/dwfoNq/RbnSFeyaNWepu9Ys3fQinWYWE39t0TSheeOZstS6bHUrLbRiQqdrq8vh0PLiUXfDj7Fk0c3FhAqtL1hCywtFX661uoau5ZmWLMesqM+UOIoJiomFqVXFhB/t1tAppzb8x2Jh6ox1J45xrfn2aWYxoYtDqTOq0LyhaPOzNkM3ky5oVe96HwuxmEh7TRRdI0GvKQsde6IvrtDy4um0YkK0tSG0vKTob9CFybLos+hCb6HlhfJTS2j3LMUExcTC1I5iIh4dY6HOr4bzYydGLwOt08xiQtJeO8OP+vxfb3msRdd10C9DNar6ktQ1UXRfDZ+KFU2jnjPVeKsPhUstv7boSoVuefuPtUmwEI+Z+DdLaHmh7LDo/6hGPk7vtw5ifrHlHIsOlA0tIymdWEzI1yyhZdaKrkapy+nrS1RnhrneWnUa/DMsuraGLoKWdquNH3WZHkIxQTGxMM1HMRE6ABMt0+xiQr5sCc3frnzEUstCLCaWWtLuYmplOrWYUCF6lSW03HbnQ5YkFBMUEwsTxcSC14piQv7DElpGO6ItFbUuGb8QiwmZz/fcpVOLCVG3+Wm/PFuV11tqoZigmFiYKCYWvFYVE/JXlvn6NVi0JFmoxYToSpSh5bYrnVxMOMst45bQc7Qq2mWU5hpAFBMUEwsTxcSCpy/d0ActFF3uuJFuyfWF+kHLbZbQcpuZfRadv5/UYZXo9VxvCc0fysmWRmn/etrCRRm0zJXOkrnCElp+lui9VMP+bIuk+UL4viVLMXG+JbScUN5paSZ19KU+NPR3hp5vrtHpzxssoWNTkqiYuMASWl4oczmVVcWE+hsJLTcUXfCtEfr7v2IJLTMUXVK9UZ+2hJYZStJxK2gFiokFT6cJvsQS76wolOMtOkByLnSmhc79X2VRA/MDi75sb7D8waKD2eJREbLXMma50qJeM3VA3d9btPVDrylLvyM6oFNdT59gCf2d8Tza0qgsz6Vp9AXXLHqv1aPjVy2/tOhsAx2o6t5XndmhAyz1vqoI0LEueg06viBEW3Rq/R16TFuusvwvdKxH2vdGB962ks4s0vOoaPqe5bcWnUobWi/1Puo0UJ3irPdWnbDpgGAdmKkv6Ubpf/Y3ljTviQ6SzXqar09f8s+3pH2uR1kaoVP6n2PRAfWhZftZadFnulF6/9P8PWrzdDAt2oViAgAAzAnFBAAAmBOKCQAAMCfF/OS3o94p2xaKCQAAFpChwo6/Hs6Pf3FkYFd5/eAN9kU/GSwAmhmKCQAAFqjSsl89rJif+vDIwO491at6tqawoJgAAGARqBYWk6+zL/8p7QYZGdhphcD4rMKgkVBMAACwCI30T68bGdz1Kx2sqUIgVCSkDcUEAACLnK72WcyPf3v94J7yqCVUMNQKxQQAANhv6ITx55QK018ZHdhdubR4muMsKCYAAEBQsf+6w0orx//LCoo7VVioaKCYAAAADRktXPvgYv/Uv1jhML1h1c0HFBYUEwAAIJON+V2HDvdPFov5qXGdGTI6uJtiAgAANG5dfvxkKygu1xki0SgAAAAAAAAAAAAAAAAAAAAAAAAAAAAAAAAAAAAAAAAAAAAAAAAAAAAAAAAAAAAAAAAAAAAAAAAAAAAAAAAAAAAAAAAAAAAAAAAAAAAAAAAAAAAAAAAAAAAAAAAAAAAAAAAAAAAAAAAAAAAAAAAAAAAAAAAAAAAAAAAAAAAAAAAAAAAAAAAAAAAAAAAAAAC0x5Il/x/l0DJp0BrUvgAAAABJRU5ErkJggg==;" vertex="1" parent="1">
          <mxGeometry x="110" y="344" width="192.77" height="110" as="geometry" />
        </mxCell>
        <mxCell id="hhCjiG_dvKOZhPT0T433-5" value="VPC" style="points=[[0,0],[0.25,0],[0.5,0],[0.75,0],[1,0],[1,0.25],[1,0.5],[1,0.75],[1,1],[0.75,1],[0.5,1],[0.25,1],[0,1],[0,0.75],[0,0.5],[0,0.25]];outlineConnect=0;gradientColor=none;html=1;whiteSpace=wrap;fontSize=12;fontStyle=0;container=1;pointerEvents=0;collapsible=0;recursiveResize=0;shape=mxgraph.aws4.group;grIcon=mxgraph.aws4.group_vpc2;strokeColor=#8C4FFF;fillColor=none;verticalAlign=top;align=left;spacingLeft=30;fontColor=#AAB7B8;dashed=0;" vertex="1" parent="1">
          <mxGeometry x="320" y="360" width="360" height="300" as="geometry" />
        </mxCell>
      </root>
    </mxGraphModel>
  </diagram>
</mxfile>
